<svg xmlns="http://www.w3.org/2000/svg" viewBox="0 0 410 404"><defs><linearGradient x1="17.951%" y1="15.425%" x2="56.93%" y2="99.407%" id="a"><stop stop-color="#41D1FF" offset="0%"/><stop stop-color="#BD34FE" offset="100%"/></linearGradient><linearGradient x1="43.376%" y1="16.598%" x2="50.316%" y2="89.429%" id="b"><stop stop-color="#FFEA83" offset="0%"/><stop stop-color="#FFDD35" offset="8.333%"/><stop stop-color="#FFA800" offset="100%"/></linearGradient></defs><g fill="none"><path d="M399.641 59.525L215.297 388.148c-3.86 6.778-13.522 6.773-17.376-.009L10.395 59.526c-4.158-7.301 1.826-16.263 10.037-14.989l188.303 28.045a10.05 10.05 0 0 0 2.976-.002l177.892-27.957c8.204-1.29 14.205 7.668 10.05 14.973Z" fill="#2A2A2A"/><path d="M292.923 1.015 156.823 23.078a4.76 4.76 0 0 0-4.005 4.3l-9.276 134.862a4.76 4.76 0 0 0 5.574 4.954l38.611-6.335c4.493-.737 8.372 3.07 7.845 7.58l-11.451 99.14c-.54 4.675 4.262 8.292 8.58 6.577l24.103-9.44a4.76 4.76 0 0 1 6.513 4.748l-3.438 73.285c-.228 4.86 6.221 6.815 8.544 2.572l1.012-1.862 117.411-233.59c2.138-4.255-1.388-9.24-6.125-8.448l-39.675 6.585c-4.53.751-8.423-3.118-7.868-7.653l7.432-62.416c.558-4.688-4.355-8.309-8.662-6.602l-.766.297Z" fill="#FFF"/><path d="m290.196 1.872-136.1 22.064a6.42 6.42 0 0 0-5.368 5.813l-9.276 134.862a6.42 6.42 0 0 0 7.532 6.681l38.611-6.335c6.047-.992 11.272 4.11 10.559 10.184l-11.451 99.14c-.73 6.324 5.762 11.211 11.569 8.887l24.103-9.44a6.42 6.42 0 0 1 8.789 6.408l-3.438 73.285c-.308 6.58 8.411 9.223 11.545 3.519l1.012-1.862 117.411-233.59c2.885-5.746-1.873-12.499-8.29-11.436l-39.675 6.585c-6.13 1.018-11.402-4.222-10.643-10.339l7.432-62.416c.752-6.323-5.868-11.202-11.675-8.877l-.766.297Z" fill="url(#a)"/><path d="M210.192 82.24c48.634 3.18 85.112 42.32 79.118 86.157-5.994 43.838-52.212 75.31-100.846 72.13-48.634-3.179-85.112-42.32-79.118-86.158 5.994-43.838 52.212-75.308 100.846-72.129Z" fill="url(#b)"/><path d="M204.83 114.165c23.563 1.54 41.225 20.464 38.381 41.641-2.844 21.178-25.807 36.3-49.371 34.761-23.563-1.54-41.225-20.463-38.381-41.64 2.844-21.178 25.807-36.3 49.371-34.762Z" fill="#2A2A2A"/></g></svg>

